STARTFONT 2.1
FONT -FontForge-Syncopate-Book-R-Normal--18-180-72-72-P-135-ISO10646-1
SIZE 18 72 72
FONTBOUNDINGBOX 33 20 -4 -4
COMMENT "Generated by fontforge, http://fontforge.sourceforge.net"
COMMENT "Copyright (c) 2010 by Brian J. Bonislawsky DBA Astigmatic (AOETI). All rights reserved. Available under the Apache 2.0 licence.http://www.apache.org/licenses/LICENSE-2.0.html"
STARTPROPERTIES 39
FOUNDRY "FontForge"
FAMILY_NAME "Syncopate"
WEIGHT_NAME "Book"
SLANT "R"
SETWIDTH_NAME "Normal"
ADD_STYLE_NAME ""
PIXEL_SIZE 18
POINT_SIZE 180
RESOLUTION_X 72
RESOLUTION_Y 72
SPACING "P"
AVERAGE_WIDTH 135
CHARSET_REGISTRY "ISO10646"
CHARSET_ENCODING "1"
FONTNAME_REGISTRY ""
CHARSET_COLLECTIONS "ISO8859-2 ISO8859-9 ISO8859-4 ISO10646-1"
FONT_NAME "Syncopate-Regular"
FACE_NAME "Syncopate Regular"
COPYRIGHT "Copyright (c) 2010 by Brian J. Bonislawsky DBA Astigmatic (AOETI). All rights reserved. Available under the Apache 2.0 licence.http://www.apache.org/licenses/LICENSE-2.0.html"
FONT_VERSION "001.001"
FONT_ASCENT 14
FONT_DESCENT 4
UNDERLINE_POSITION -2
UNDERLINE_THICKNESS 1
X_HEIGHT 11
CAP_HEIGHT 11
RAW_ASCENT 799
RAW_DESCENT 200
NORM_SPACE 7
RELATIVE_WEIGHT 40
RELATIVE_SETWIDTH 70
SUPERSCRIPT_X 0
SUPERSCRIPT_Y 5
SUPERSCRIPT_SIZE 3
SUBSCRIPT_X 0
SUBSCRIPT_Y 5
SUBSCRIPT_SIZE 3
AVG_LOWERCASE_WIDTH 154
AVG_UPPERCASE_WIDTH 149
ENDPROPERTIES
CHARS 370
STARTCHAR space
ENCODING 32
SWIDTH 375 0
DWIDTH 7 0
BBX 1 1 0 0
BITMAP
00
ENDCHAR
STARTCHAR exclam
ENCODING 33
SWIDTH 274 0
DWIDTH 5 0
BBX 1 12 2 0
BITMAP
80
80
80
80
80
80
80
80
00
00
80
80
ENDCHAR
STARTCHAR quotedbl
ENCODING 34
SWIDTH 290 0
DWIDTH 5 0
BBX 4 4 1 8
BITMAP
90
90
90
90
ENDCHAR
STARTCHAR numbersign
ENCODING 35
SWIDTH 701 0
DWIDTH 13 0
BBX 11 12 1 0
BITMAP
0840
1080
1080
7FE0
1080
2100
2100
2100
FFC0
2100
4200
4200
ENDCHAR
STARTCHAR dollar
ENCODING 36
SWIDTH 767 0
DWIDTH 14 0
BBX 11 14 1 -1
BITMAP
0400
3F80
C440
8400
8400
4400
3C00
0780
0440
0420
0420
8440
7F80
0400
ENDCHAR
STARTCHAR percent
ENCODING 37
SWIDTH 992 0
DWIDTH 18 0
BBX 15 12 1 0
BITMAP
3808
4410
8220
8240
4480
3900
0138
0244
0482
0882
1044
2038
ENDCHAR
STARTCHAR ampersand
ENCODING 38
SWIDTH 926 0
DWIDTH 17 0
BBX 14 12 2 0
BITMAP
0F00
1080
2080
2100
1600
1800
2408
4208
8190
8050
4070
3F8C
ENDCHAR
STARTCHAR quotesingle
ENCODING 39
SWIDTH 140 0
DWIDTH 3 0
BBX 1 4 1 8
BITMAP
80
80
80
80
ENDCHAR
STARTCHAR parenleft
ENCODING 40
SWIDTH 420 0
DWIDTH 8 0
BBX 4 14 1 -1
BITMAP
10
20
40
40
80
80
80
80
80
80
40
40
20
10
ENDCHAR
STARTCHAR parenright
ENCODING 41
SWIDTH 420 0
DWIDTH 8 0
BBX 4 14 2 -1
BITMAP
80
40
20
20
10
10
10
10
10
10
20
20
40
80
ENDCHAR
STARTCHAR asterisk
ENCODING 42
SWIDTH 503 0
DWIDTH 9 0
BBX 7 7 1 5
BITMAP
10
92
7C
10
7C
92
10
ENDCHAR
STARTCHAR plus
ENCODING 43
SWIDTH 634 0
DWIDTH 11 0
BBX 9 9 1 2
BITMAP
0800
0800
0800
0800
FF80
0800
0800
0800
0800
ENDCHAR
STARTCHAR comma
ENCODING 44
SWIDTH 185 0
DWIDTH 3 0
BBX 2 4 0 -2
BITMAP
40
40
80
80
ENDCHAR
STARTCHAR hyphen
ENCODING 45
SWIDTH 540 0
DWIDTH 10 0
BBX 7 1 1 6
BITMAP
FE
ENDCHAR
STARTCHAR period
ENCODING 46
SWIDTH 185 0
DWIDTH 3 0
BBX 1 2 1 0
BITMAP
80
80
ENDCHAR
STARTCHAR slash
ENCODING 47
SWIDTH 500 0
DWIDTH 9 0
BBX 7 13 1 0
BITMAP
02
04
04
08
08
10
10
10
20
20
40
40
80
ENDCHAR
STARTCHAR zero
ENCODING 48
SWIDTH 833 0
DWIDTH 15 0
BBX 13 12 1 0
BITMAP
0F80
3060
4010
4010
8008
8008
8008
8008
4010
4010
3060
0F80
ENDCHAR
STARTCHAR one
ENCODING 49
SWIDTH 339 0
DWIDTH 6 0
BBX 4 12 0 0
BITMAP
30
D0
10
10
10
10
10
10
10
10
10
10
ENDCHAR
STARTCHAR two
ENCODING 50
SWIDTH 728 0
DWIDTH 13 0
BBX 11 12 1 0
BITMAP
7F00
80C0
0020
0020
0020
0040
0080
0100
0600
1800
6000
FFE0
ENDCHAR
STARTCHAR three
ENCODING 51
SWIDTH 726 0
DWIDTH 13 0
BBX 11 12 1 0
BITMAP
7F80
8040
0020
0020
0040
0F80
00C0
0020
0020
0020
80C0
7F00
ENDCHAR
STARTCHAR four
ENCODING 52
SWIDTH 769 0
DWIDTH 14 0
BBX 12 12 1 0
BITMAP
0180
0280
0480
0880
1080
2080
4080
4080
FFF0
0080
0080
0080
ENDCHAR
STARTCHAR five
ENCODING 53
SWIDTH 738 0
DWIDTH 13 0
BBX 10 12 2 0
BITMAP
FF80
8000
8000
8000
FE00
0180
0040
0040
0040
0040
8180
7E00
ENDCHAR
STARTCHAR six
ENCODING 54
SWIDTH 772 0
DWIDTH 14 0
BBX 12 12 1 0
BITMAP
0FC0
3020
4000
8000
8F80
B060
C010
8010
8010
4010
3060
0F80
ENDCHAR
STARTCHAR seven
ENCODING 55
SWIDTH 669 0
DWIDTH 12 0
BBX 12 12 0 0
BITMAP
FFF0
0020
0020
0040
0040
0080
0100
0100
0200
0400
0400
0800
ENDCHAR
STARTCHAR eight
ENCODING 56
SWIDTH 793 0
DWIDTH 14 0
BBX 12 12 1 0
BITMAP
1F80
2040
4020
4020
30C0
0F00
30C0
4020
8010
8010
4020
3FC0
ENDCHAR
STARTCHAR nine
ENCODING 57
SWIDTH 776 0
DWIDTH 14 0
BBX 12 12 1 0
BITMAP
1F80
60C0
8020
8010
8010
8030
60D0
1F10
0020
0020
40C0
3F00
ENDCHAR
STARTCHAR colon
ENCODING 58
SWIDTH 245 0
DWIDTH 4 0
BBX 1 8 1 0
BITMAP
80
80
00
00
00
00
80
80
ENDCHAR
STARTCHAR semicolon
ENCODING 59
SWIDTH 234 0
DWIDTH 4 0
BBX 2 10 1 -2
BITMAP
40
40
00
00
00
00
40
40
80
80
ENDCHAR
STARTCHAR less
ENCODING 60
SWIDTH 634 0
DWIDTH 11 0
BBX 9 9 1 2
BITMAP
0080
0300
1C00
6000
8000
6000
1C00
0300
0080
ENDCHAR
STARTCHAR equal
ENCODING 61
SWIDTH 634 0
DWIDTH 11 0
BBX 8 4 2 4
BITMAP
FF
00
00
FF
ENDCHAR
STARTCHAR greater
ENCODING 62
SWIDTH 634 0
DWIDTH 11 0
BBX 9 9 2 2
BITMAP
8000
6000
1C00
0300
0080
0300
1C00
6000
8000
ENDCHAR
STARTCHAR question
ENCODING 63
SWIDTH 568 0
DWIDTH 10 0
BBX 8 12 1 0
BITMAP
7C
82
01
01
02
0C
30
20
00
00
20
20
ENDCHAR
STARTCHAR at
ENCODING 64
SWIDTH 1016 0
DWIDTH 18 0
BBX 16 13 1 0
BITMAP
07F0
180C
2002
4002
43E1
8421
8821
8841
8842
47BC
4000
3018
0FE0
ENDCHAR
STARTCHAR A
ENCODING 65
SWIDTH 812 0
DWIDTH 15 0
BBX 13 12 1 0
BITMAP
0200
0500
0500
0880
0880
1040
1040
2020
3FE0
4010
4010
8008
ENDCHAR
STARTCHAR B
ENCODING 66
SWIDTH 836 0
DWIDTH 15 0
BBX 12 12 2 0
BITMAP
FF80
8040
8020
8020
8040
FF80
8060
8010
8010
8010
8020
FFC0
ENDCHAR
STARTCHAR C
ENCODING 67
SWIDTH 869 0
DWIDTH 16 0
BBX 13 12 1 0
BITMAP
0FC0
3030
4008
4000
8000
8000
8000
8000
4000
4008
3030
0FC0
ENDCHAR
STARTCHAR D
ENCODING 68
SWIDTH 910 0
DWIDTH 16 0
BBX 13 12 2 0
BITMAP
FF80
8060
8010
8008
8008
8008
8008
8008
8008
8010
8060
FF80
ENDCHAR
STARTCHAR E
ENCODING 69
SWIDTH 754 0
DWIDTH 14 0
BBX 10 12 2 0
BITMAP
FFC0
8000
8000
8000
8000
FF80
8000
8000
8000
8000
8000
FFC0
ENDCHAR
STARTCHAR F
ENCODING 70
SWIDTH 687 0
DWIDTH 12 0
BBX 10 12 2 0
BITMAP
FFC0
8000
8000
8000
8000
FFC0
8000
8000
8000
8000
8000
8000
ENDCHAR
STARTCHAR G
ENCODING 71
SWIDTH 910 0
DWIDTH 16 0
BBX 14 12 1 0
BITMAP
07E0
3818
4004
4000
8000
8000
80FC
8004
4004
4004
3004
0FF8
ENDCHAR
STARTCHAR H
ENCODING 72
SWIDTH 949 0
DWIDTH 17 0
BBX 13 12 2 0
BITMAP
8008
8008
8008
8008
8008
FFF8
8008
8008
8008
8008
8008
8008
ENDCHAR
STARTCHAR I
ENCODING 73
SWIDTH 287 0
DWIDTH 5 0
BBX 1 12 2 0
BITMAP
80
80
80
80
80
80
80
80
80
80
80
80
ENDCHAR
STARTCHAR J
ENCODING 74
SWIDTH 590 0
DWIDTH 11 0
BBX 9 12 0 0
BITMAP
0080
0080
0080
0080
0080
0080
0080
0080
0080
0080
8100
7E00
ENDCHAR
STARTCHAR K
ENCODING 75
SWIDTH 806 0
DWIDTH 15 0
BBX 12 12 2 0
BITMAP
8030
80C0
8300
8400
9800
E000
B000
8800
8600
8100
80C0
8030
ENDCHAR
STARTCHAR L
ENCODING 76
SWIDTH 701 0
DWIDTH 13 0
BBX 10 12 2 0
BITMAP
8000
8000
8000
8000
8000
8000
8000
8000
8000
8000
8000
FFC0
ENDCHAR
STARTCHAR M
ENCODING 77
SWIDTH 1139 0
DWIDTH 21 0
BBX 16 12 2 0
BITMAP
8001
C001
A003
A003
9005
8809
8809
8411
8221
8221
8141
8081
ENDCHAR
STARTCHAR N
ENCODING 78
SWIDTH 936 0
DWIDTH 17 0
BBX 12 12 2 0
BITMAP
8010
C010
A010
9010
8810
8410
8210
8110
8090
8050
8030
8010
ENDCHAR
STARTCHAR O
ENCODING 79
SWIDTH 983 0
DWIDTH 18 0
BBX 15 12 1 0
BITMAP
0FE0
3018
4004
C004
8002
8002
8002
8002
4004
4004
3018
0FE0
ENDCHAR
STARTCHAR P
ENCODING 80
SWIDTH 818 0
DWIDTH 15 0
BBX 12 12 2 0
BITMAP
FFC0
8020
8010
8010
8010
8020
FFC0
8000
8000
8000
8000
8000
ENDCHAR
STARTCHAR Q
ENCODING 81
SWIDTH 983 0
DWIDTH 18 0
BBX 16 12 1 0
BITMAP
0FE0
3018
4004
C004
8002
8002
8002
8002
4004
40C4
303C
0FE3
ENDCHAR
STARTCHAR R
ENCODING 82
SWIDTH 833 0
DWIDTH 15 0
BBX 12 12 2 0
BITMAP
FF80
8040
8020
8020
8020
8040
FF80
8080
8080
8040
8020
8010
ENDCHAR
STARTCHAR S
ENCODING 83
SWIDTH 787 0
DWIDTH 14 0
BBX 11 12 2 0
BITMAP
3F80
4040
8000
8000
4000
3C00
0380
0040
0020
0020
8040
7F80
ENDCHAR
STARTCHAR T
ENCODING 84
SWIDTH 708 0
DWIDTH 13 0
BBX 13 12 0 0
BITMAP
FFF8
0200
0200
0200
0200
0200
0200
0200
0200
0200
0200
0200
ENDCHAR
STARTCHAR U
ENCODING 85
SWIDTH 891 0
DWIDTH 16 0
BBX 12 12 2 0
BITMAP
8010
8010
8010
8010
8010
8010
8010
8010
8010
8010
6060
1F80
ENDCHAR
STARTCHAR V
ENCODING 86
SWIDTH 817 0
DWIDTH 15 0
BBX 13 12 1 0
BITMAP
8008
8008
4010
4010
2020
2040
1040
0880
0880
0500
0500
0200
ENDCHAR
STARTCHAR W
ENCODING 87
SWIDTH 1266 0
DWIDTH 23 0
BBX 21 12 1 0
BITMAP
802008
805008
405010
408810
208820
208820
310460
110440
120440
0A0280
0A0280
040100
ENDCHAR
STARTCHAR X
ENCODING 88
SWIDTH 821 0
DWIDTH 15 0
BBX 11 12 2 0
BITMAP
8020
4040
2080
1100
0A00
0400
0A00
0A00
1100
2080
4040
8020
ENDCHAR
STARTCHAR Y
ENCODING 89
SWIDTH 763 0
DWIDTH 14 0
BBX 11 12 1 0
BITMAP
8020
4040
2080
3180
1100
0A00
0400
0400
0400
0400
0400
0400
ENDCHAR
STARTCHAR Z
ENCODING 90
SWIDTH 728 0
DWIDTH 13 0
BBX 10 12 2 0
BITMAP
FFC0
0080
0100
0300
0200
0400
0800
1000
2000
4000
4000
FFC0
ENDCHAR
STARTCHAR bracketleft
ENCODING 91
SWIDTH 409 0
DWIDTH 7 0
BBX 4 14 2 -1
BITMAP
F0
80
80
80
80
80
80
80
80
80
80
80
80
F0
ENDCHAR
STARTCHAR backslash
ENCODING 92
SWIDTH 500 0
DWIDTH 9 0
BBX 7 13 1 0
BITMAP
80
40
40
20
20
10
10
10
08
08
04
04
02
ENDCHAR
STARTCHAR bracketright
ENCODING 93
SWIDTH 409 0
DWIDTH 7 0
BBX 4 14 1 -1
BITMAP
F0
10
10
10
10
10
10
10
10
10
10
10
10
F0
ENDCHAR
STARTCHAR asciicircum
ENCODING 94
SWIDTH 459 0
DWIDTH 8 0
BBX 7 5 1 7
BITMAP
10
28
44
44
82
ENDCHAR
STARTCHAR underscore
ENCODING 95
SWIDTH 500 0
DWIDTH 9 0
BBX 9 1 0 -2
BITMAP
FF80
ENDCHAR
STARTCHAR grave
ENCODING 96
SWIDTH 527 0
DWIDTH 10 0
BBX 4 3 2 10
BITMAP
80
60
10
ENDCHAR
STARTCHAR a
ENCODING 97
SWIDTH 888 0
DWIDTH 16 0
BBX 13 12 1 0
BITMAP
1FC0
6030
0008
0008
0008
03F8
3C08
4008
8008
8008
C078
3F88
ENDCHAR
STARTCHAR b
ENCODING 98
SWIDTH 836 0
DWIDTH 15 0
BBX 12 12 2 0
BITMAP
FF80
8040
8020
8020
8040
FF80
8060
8010
8010
8010
8020
FFC0
ENDCHAR
STARTCHAR c
ENCODING 99
SWIDTH 869 0
DWIDTH 16 0
BBX 13 12 1 0
BITMAP
0FC0
3030
4008
4000
8000
8000
8000
8000
4000
4008
3030
0FC0
ENDCHAR
STARTCHAR d
ENCODING 100
SWIDTH 910 0
DWIDTH 16 0
BBX 13 12 2 0
BITMAP
FF80
8060
8010
8008
8008
8008
8008
8008
8008
8010
8060
FF80
ENDCHAR
STARTCHAR e
ENCODING 101
SWIDTH 910 0
DWIDTH 16 0
BBX 14 12 1 0
BITMAP
0FC0
3030
4008
4004
8004
FFFC
8000
8000
4000
4000
3008
0FF0
ENDCHAR
STARTCHAR f
ENCODING 102
SWIDTH 817 0
DWIDTH 15 0
BBX 12 12 2 0
BITMAP
1FF0
6000
8000
8000
8000
FFF0
8000
8000
8000
8000
8000
8000
ENDCHAR
STARTCHAR g
ENCODING 103
SWIDTH 910 0
DWIDTH 16 0
BBX 14 12 1 0
BITMAP
07E0
3818
4004
4000
8000
8000
80FC
8004
4004
4004
3004
0FF8
ENDCHAR
STARTCHAR h
ENCODING 104
SWIDTH 949 0
DWIDTH 17 0
BBX 13 12 2 0
BITMAP
8008
8008
8008
8008
8008
FFF8
8008
8008
8008
8008
8008
8008
ENDCHAR
STARTCHAR i
ENCODING 105
SWIDTH 287 0
DWIDTH 5 0
BBX 1 12 2 0
BITMAP
80
80
80
80
80
80
80
80
80
80
80
80
ENDCHAR
STARTCHAR j
ENCODING 106
SWIDTH 590 0
DWIDTH 11 0
BBX 9 12 0 0
BITMAP
0080
0080
0080
0080
0080
0080
0080
0080
0080
0080
8100
7E00
ENDCHAR
STARTCHAR k
ENCODING 107
SWIDTH 867 0
DWIDTH 16 0
BBX 12 12 2 0
BITMAP
8020
8020
8040
8080
8300
FC00
8380
8040
8020
8020
8010
8010
ENDCHAR
STARTCHAR l
ENCODING 108
SWIDTH 709 0
DWIDTH 13 0
BBX 11 12 2 0
BITMAP
8000
8000
8000
8000
8000
8000
8000
8000
8000
8000
4000
3FE0
ENDCHAR
STARTCHAR m
ENCODING 109
SWIDTH 1246 0
DWIDTH 22 0
BBX 19 12 2 0
BITMAP
9F0F80
A09040
C06020
804020
804020
804020
804020
804020
804020
804020
804020
804020
ENDCHAR
STARTCHAR n
ENCODING 110
SWIDTH 933 0
DWIDTH 17 0
BBX 13 12 2 0
BITMAP
87E0
B810
C008
8008
8008
8008
8008
8008
8008
8008
8008
8008
ENDCHAR
STARTCHAR o
ENCODING 111
SWIDTH 983 0
DWIDTH 18 0
BBX 15 12 1 0
BITMAP
0FE0
3018
4004
C004
8002
8002
8002
8002
4004
4004
3018
0FE0
ENDCHAR
STARTCHAR p
ENCODING 112
SWIDTH 818 0
DWIDTH 15 0
BBX 12 12 2 0
BITMAP
FFC0
8020
8010
8010
8010
8020
FFC0
8000
8000
8000
8000
8000
ENDCHAR
STARTCHAR q
ENCODING 113
SWIDTH 983 0
DWIDTH 18 0
BBX 16 12 1 0
BITMAP
0FE0
3018
4004
C004
8002
8002
8002
8002
4004
4004
3018
0FE7
ENDCHAR
STARTCHAR r
ENCODING 114
SWIDTH 609 0
DWIDTH 11 0
BBX 9 12 2 0
BITMAP
8F80
B000
C000
8000
8000
8000
8000
8000
8000
8000
8000
8000
ENDCHAR
STARTCHAR s
ENCODING 115
SWIDTH 787 0
DWIDTH 14 0
BBX 11 12 2 0
BITMAP
3F80
4040
8000
8000
4000
3C00
0380
0040
0020
0020
8040
7F80
ENDCHAR
STARTCHAR t
ENCODING 116
SWIDTH 708 0
DWIDTH 13 0
BBX 13 12 0 0
BITMAP
FFF8
0200
0200
0200
0200
0200
0200
0200
0200
0200
0200
0200
ENDCHAR
STARTCHAR u
ENCODING 117
SWIDTH 931 0
DWIDTH 17 0
BBX 13 12 2 0
BITMAP
8008
8008
8008
8008
8008
8008
8008
8008
8008
8038
40C8
3F08
ENDCHAR
STARTCHAR v
ENCODING 118
SWIDTH 817 0
DWIDTH 15 0
BBX 13 12 1 0
BITMAP
8008
8008
4010
4010
2020
2040
1040
0880
0880
0500
0500
0200
ENDCHAR
STARTCHAR w
ENCODING 119
SWIDTH 1266 0
DWIDTH 23 0
BBX 21 12 1 0
BITMAP
802008
805008
405010
408810
208820
208820
310460
110440
120440
0A0280
0A0280
040100
ENDCHAR
STARTCHAR x
ENCODING 120
SWIDTH 821 0
DWIDTH 15 0
BBX 11 12 2 0
BITMAP
8020
4040
2080
1100
0A00
0400
0A00
0A00
1100
2080
4040
8020
ENDCHAR
STARTCHAR y
ENCODING 121
SWIDTH 911 0
DWIDTH 16 0
BBX 12 12 2 0
BITMAP
8010
8010
8010
8010
8010
4030
20D0
1F10
0010
0020
8040
7F80
ENDCHAR
STARTCHAR z
ENCODING 122
SWIDTH 728 0
DWIDTH 13 0
BBX 10 12 2 0
BITMAP
FFC0
0080
0100
0300
0200
0400
0800
1000
2000
4000
4000
FFC0
ENDCHAR
STARTCHAR braceleft
ENCODING 123
SWIDTH 386 0
DWIDTH 7 0
BBX 5 14 1 -1
BITMAP
18
20
20
20
20
20
20
C0
60
20
20
20
20
18
ENDCHAR
STARTCHAR bar
ENCODING 124
SWIDTH 259 0
DWIDTH 5 0
BBX 1 18 2 -4
BITMAP
80
80
80
80
80
80
80
80
80
80
80
80
80
80
80
80
80
80
ENDCHAR
STARTCHAR braceright
ENCODING 125
SWIDTH 386 0
DWIDTH 7 0
BBX 6 14 0 -1
BITMAP
E0
10
10
10
10
10
10
0C
18
10
10
10
10
E0
ENDCHAR
STARTCHAR asciitilde
ENCODING 126
SWIDTH 634 0
DWIDTH 11 0
BBX 9 2 1 5
BITMAP
7880
8700
ENDCHAR
STARTCHAR nonbreakingspace
ENCODING 160
SWIDTH 375 0
DWIDTH 7 0
BBX 1 1 0 0
BITMAP
00
ENDCHAR
STARTCHAR exclamdown
ENCODING 161
SWIDTH 274 0
DWIDTH 5 0
BBX 1 12 2 0
BITMAP
80
80
00
00
80
80
80
80
80
80
80
80
ENDCHAR
STARTCHAR cent
ENCODING 162
SWIDTH 736 0
DWIDTH 13 0
BBX 11 14 1 -1
BITMAP
0200
0FC0
3220
4200
8200
8200
8200
8200
8200
4200
3220
0FC0
0200
0200
ENDCHAR
STARTCHAR sterling
ENCODING 163
SWIDTH 792 0
DWIDTH 14 0
BBX 12 12 1 0
BITMAP
07C0
0820
1000
1000
1000
1000
FFC0
1000
1000
1000
3E10
C1E0
ENDCHAR
STARTCHAR currency
ENCODING 164
SWIDTH 560 0
DWIDTH 10 0
BBX 8 8 1 2
BITMAP
81
5A
24
42
42
24
5A
81
ENDCHAR
STARTCHAR yen
ENCODING 165
SWIDTH 811 0
DWIDTH 15 0
BBX 11 12 2 0
BITMAP
8020
4040
2080
3180
1100
FBE0
0400
0400
FFE0
0400
0400
0400
ENDCHAR
STARTCHAR brokenbar
ENCODING 166
SWIDTH 259 0
DWIDTH 5 0
BBX 1 16 2 -3
BITMAP
80
80
80
80
80
80
80
00
00
80
80
80
80
80
80
80
ENDCHAR
STARTCHAR section
ENCODING 167
SWIDTH 500 0
DWIDTH 9 0
BBX 7 12 1 0
BITMAP
38
44
40
30
4C
82
82
64
18
04
44
38
ENDCHAR
STARTCHAR dieresis
ENCODING 168
SWIDTH 527 0
DWIDTH 10 0
BBX 5 1 2 10
BITMAP
88
ENDCHAR
STARTCHAR copyright
ENCODING 169
SWIDTH 770 0
DWIDTH 14 0
BBX 12 12 1 0
BITMAP
0F00
30C0
4020
4E20
9110
A010
A010
A010
5120
4E20
30C0
0F00
ENDCHAR
STARTCHAR ordfeminine
ENCODING 170
SWIDTH 497 0
DWIDTH 9 0
BBX 7 8 1 4
BITMAP
7C
02
3E
C2
82
7E
00
FE
ENDCHAR
STARTCHAR guillemotleft
ENCODING 171
SWIDTH 440 0
DWIDTH 8 0
BBX 7 7 0 3
BITMAP
12
24
48
90
48
24
12
ENDCHAR
STARTCHAR logicalnot
ENCODING 172
SWIDTH 634 0
DWIDTH 11 0
BBX 8 4 2 4
BITMAP
FF
01
01
01
ENDCHAR
STARTCHAR uni00AD
ENCODING 173
SWIDTH 540 0
DWIDTH 10 0
BBX 7 1 1 6
BITMAP
FE
ENDCHAR
STARTCHAR registered
ENCODING 174
SWIDTH 600 0
DWIDTH 11 0
BBX 9 9 1 3
BITMAP
3E00
4100
9C80
9280
9C80
9480
9280
4100
3E00
ENDCHAR
STARTCHAR macron
ENCODING 175
SWIDTH 527 0
DWIDTH 10 0
BBX 5 1 2 10
BITMAP
F8
ENDCHAR
STARTCHAR degree
ENCODING 176
SWIDTH 373 0
DWIDTH 7 0
BBX 4 4 1 8
BITMAP
60
90
90
60
ENDCHAR
STARTCHAR plusminus
ENCODING 177
SWIDTH 634 0
DWIDTH 11 0
BBX 9 9 1 1
BITMAP
0800
0800
0800
FF80
0800
0800
0800
0000
FF80
ENDCHAR
STARTCHAR twosuperior
ENCODING 178
SWIDTH 511 0
DWIDTH 9 0
BBX 7 8 1 4
BITMAP
7C
82
02
02
04
18
60
FE
ENDCHAR
STARTCHAR threesuperior
ENCODING 179
SWIDTH 512 0
DWIDTH 9 0
BBX 7 8 1 4
BITMAP
7C
82
02
3C
06
02
82
7C
ENDCHAR
STARTCHAR acute
ENCODING 180
SWIDTH 527 0
DWIDTH 10 0
BBX 4 3 4 10
BITMAP
10
60
80
ENDCHAR
STARTCHAR micro
ENCODING 181
SWIDTH 705 0
DWIDTH 13 0
BBX 10 12 1 -4
BITMAP
2040
2040
4080
4080
4080
4180
6280
BC80
8000
8000
8000
8000
ENDCHAR
STARTCHAR paragraph
ENCODING 182
SWIDTH 585 0
DWIDTH 11 0
BBX 7 12 1 0
BITMAP
3E
7A
FA
FA
FA
7A
3A
0A
0A
0A
0A
0A
ENDCHAR
STARTCHAR periodcentered
ENCODING 183
SWIDTH 185 0
DWIDTH 3 0
BBX 2 2 1 5
BITMAP
C0
C0
ENDCHAR
STARTCHAR cedilla
ENCODING 184
SWIDTH 527 0
DWIDTH 10 0
BBX 4 4 3 -4
BITMAP
20
20
10
E0
ENDCHAR
STARTCHAR onesuperior
ENCODING 185
SWIDTH 261 0
DWIDTH 5 0
BBX 3 8 0 4
BITMAP
E0
20
20
20
20
20
20
20
ENDCHAR
STARTCHAR ordmasculine
ENCODING 186
SWIDTH 520 0
DWIDTH 9 0
BBX 8 8 1 4
BITMAP
3C
42
81
81
42
3C
00
FF
ENDCHAR
STARTCHAR guillemotright
ENCODING 187
SWIDTH 440 0
DWIDTH 8 0
BBX 7 7 0 3
BITMAP
90
48
24
12
24
48
90
ENDCHAR
STARTCHAR onequarter
ENCODING 188
SWIDTH 857 0
DWIDTH 15 0
BBX 15 12 0 0
BITMAP
E010
2020
2040
2080
2100
2200
0218
0428
0848
1088
21FE
4008
ENDCHAR
STARTCHAR onehalf
ENCODING 189
SWIDTH 937 0
DWIDTH 17 0
BBX 15 12 0 0
BITMAP
E010
2020
2040
2080
2100
223C
0242
0402
0804
1008
2030
407E
ENDCHAR
STARTCHAR threequarters
ENCODING 190
SWIDTH 978 0
DWIDTH 18 0
BBX 16 12 1 0
BITMAP
F804
0408
0410
3820
0C40
0480
F88C
0114
0224
0444
08FF
1004
ENDCHAR
STARTCHAR questiondown
ENCODING 191
SWIDTH 568 0
DWIDTH 10 0
BBX 8 12 1 0
BITMAP
04
04
00
00
04
0C
30
40
80
80
41
3E
ENDCHAR
STARTCHAR Agrave
ENCODING 192
SWIDTH 812 0
DWIDTH 15 0
BBX 13 16 1 0
BITMAP
0800
0C00
0300
0000
0200
0500
0500
0880
0880
1040
1040
2020
3FE0
4010
4010
8008
ENDCHAR
STARTCHAR Aacute
ENCODING 193
SWIDTH 812 0
DWIDTH 15 0
BBX 13 16 1 0
BITMAP
0080
01C0
0200
0000
0200
0500
0500
0880
0880
1040
1040
2020
3FE0
4010
4010
8008
ENDCHAR
STARTCHAR Acircumflex
ENCODING 194
SWIDTH 812 0
DWIDTH 15 0
BBX 13 16 1 0
BITMAP
0600
0900
10C0
0000
0200
0500
0500
0880
0880
1040
1040
2020
3FE0
4010
4010
8008
ENDCHAR
STARTCHAR Atilde
ENCODING 195
SWIDTH 812 0
DWIDTH 15 0
BBX 13 15 1 0
BITMAP
0EC0
0980
0000
0200
0500
0500
0880
0880
1040
1040
2020
3FE0
4010
4010
8008
ENDCHAR
STARTCHAR Adieresis
ENCODING 196
SWIDTH 812 0
DWIDTH 15 0
BBX 13 14 1 0
BITMAP
0880
0000
0200
0500
0500
0880
0880
1040
1040
2020
3FE0
4010
4010
8008
ENDCHAR
STARTCHAR Aring
ENCODING 197
SWIDTH 812 0
DWIDTH 15 0
BBX 13 16 1 0
BITMAP
0700
0880
0700
0000
0200
0500
0500
0880
0880
1040
1040
2020
3FE0
4010
4010
8008
ENDCHAR
STARTCHAR AE
ENCODING 198
SWIDTH 1172 0
DWIDTH 21 0
BBX 19 12 1 0
BITMAP
00FFE0
014000
024000
024000
044000
087FC0
084000
104000
3FC000
204000
404000
807FE0
ENDCHAR
STARTCHAR Ccedilla
ENCODING 199
SWIDTH 869 0
DWIDTH 16 0
BBX 13 16 1 -4
BITMAP
0FC0
3030
4008
4000
8000
8000
8000
8000
4000
4008
3030
0FC0
0100
0100
0080
0700
ENDCHAR
STARTCHAR Egrave
ENCODING 200
SWIDTH 754 0
DWIDTH 14 0
BBX 10 16 2 0
BITMAP
2000
1800
0400
0000
FFC0
8000
8000
8000
8000
FF80
8000
8000
8000
8000
8000
FFC0
ENDCHAR
STARTCHAR Eacute
ENCODING 201
SWIDTH 754 0
DWIDTH 14 0
BBX 10 16 2 0
BITMAP
0100
0600
0C00
0000
FFC0
8000
8000
8000
8000
FF80
8000
8000
8000
8000
8000
FFC0
ENDCHAR
STARTCHAR Ecircumflex
ENCODING 202
SWIDTH 754 0
DWIDTH 14 0
BBX 10 16 2 0
BITMAP
0800
1600
6100
0000
FFC0
8000
8000
8000
8000
FF80
8000
8000
8000
8000
8000
FFC0
ENDCHAR
STARTCHAR Edieresis
ENCODING 203
SWIDTH 754 0
DWIDTH 14 0
BBX 10 14 2 0
BITMAP
2200
0000
FFC0
8000
8000
8000
8000
FF80
8000
8000
8000
8000
8000
FFC0
ENDCHAR
STARTCHAR Igrave
ENCODING 204
SWIDTH 287 0
DWIDTH 5 0
BBX 4 16 0 0
BITMAP
80
60
10
00
20
20
20
20
20
20
20
20
20
20
20
20
ENDCHAR
STARTCHAR Iacute
ENCODING 205
SWIDTH 287 0
DWIDTH 5 0
BBX 4 16 2 0
BITMAP
10
60
80
00
80
80
80
80
80
80
80
80
80
80
80
80
ENDCHAR
STARTCHAR Icircumflex
ENCODING 206
SWIDTH 287 0
DWIDTH 5 0
BBX 7 16 -1 0
BITMAP
10
6C
82
00
10
10
10
10
10
10
10
10
10
10
10
10
ENDCHAR
STARTCHAR Idieresis
ENCODING 207
SWIDTH 287 0
DWIDTH 5 0
BBX 5 14 0 0
BITMAP
88
00
20
20
20
20
20
20
20
20
20
20
20
20
ENDCHAR
STARTCHAR Eth
ENCODING 208
SWIDTH 910 0
DWIDTH 16 0
BBX 15 12 0 0
BITMAP
3FE0
2018
2004
2006
2002
FF02
2002
2002
2002
2004
2018
3FE0
ENDCHAR
STARTCHAR Ntilde
ENCODING 209
SWIDTH 936 0
DWIDTH 17 0
BBX 12 15 2 0
BITMAP
0E40
0980
0000
8010
C010
A010
9010
8810
8410
8210
8110
8090
8050
8030
8010
ENDCHAR
STARTCHAR Ograve
ENCODING 210
SWIDTH 983 0
DWIDTH 18 0
BBX 15 16 1 0
BITMAP
0400
0300
0080
0000
0FE0
3018
4004
C004
8002
8002
8002
8002
4004
4004
3018
0FE0
ENDCHAR
STARTCHAR Oacute
ENCODING 211
SWIDTH 983 0
DWIDTH 18 0
BBX 15 16 1 0
BITMAP
0020
00C0
0100
0000
0FE0
3018
4004
C004
8002
8002
8002
8002
4004
4004
3018
0FE0
ENDCHAR
STARTCHAR Ocircumflex
ENCODING 212
SWIDTH 983 0
DWIDTH 18 0
BBX 15 16 1 0
BITMAP
0100
06C0
0820
0000
0FE0
3018
4004
C004
8002
8002
8002
8002
4004
4004
3018
0FE0
ENDCHAR
STARTCHAR Otilde
ENCODING 213
SWIDTH 983 0
DWIDTH 18 0
BBX 15 15 1 0
BITMAP
0320
04C0
0000
0FE0
3018
4004
C004
8002
8002
8002
8002
4004
4004
3018
0FE0
ENDCHAR
STARTCHAR Odieresis
ENCODING 214
SWIDTH 983 0
DWIDTH 18 0
BBX 15 14 1 0
BITMAP
0440
0000
0FE0
3018
4004
C004
8002
8002
8002
8002
4004
4004
3018
0FE0
ENDCHAR
STARTCHAR multiply
ENCODING 215
SWIDTH 634 0
DWIDTH 11 0
BBX 7 7 2 2
BITMAP
82
44
28
10
28
44
82
ENDCHAR
STARTCHAR Oslash
ENCODING 216
SWIDTH 983 0
DWIDTH 18 0
BBX 15 14 1 -1
BITMAP
0008
0FF0
3018
4024
4044
8082
8102
8102
8202
4404
4804
3018
1FE0
2000
ENDCHAR
STARTCHAR Ugrave
ENCODING 217
SWIDTH 891 0
DWIDTH 16 0
BBX 12 16 2 0
BITMAP
0800
1C00
0200
0000
8010
8010
8010
8010
8010
8010
8010
8010
8010
8010
6060
1F80
ENDCHAR
STARTCHAR Uacute
ENCODING 218
SWIDTH 891 0
DWIDTH 16 0
BBX 12 16 2 0
BITMAP
0080
0300
0600
0000
8010
8010
8010
8010
8010
8010
8010
8010
8010
8010
6060
1F80
ENDCHAR
STARTCHAR Ucircumflex
ENCODING 219
SWIDTH 891 0
DWIDTH 16 0
BBX 12 16 2 0
BITMAP
0600
0B00
3080
0000
8010
8010
8010
8010
8010
8010
8010
8010
8010
8010
6060
1F80
ENDCHAR
STARTCHAR Udieresis
ENCODING 220
SWIDTH 891 0
DWIDTH 16 0
BBX 12 14 2 0
BITMAP
1100
0000
8010
8010
8010
8010
8010
8010
8010
8010
8010
8010
6060
1F80
ENDCHAR
STARTCHAR Yacute
ENCODING 221
SWIDTH 763 0
DWIDTH 14 0
BBX 11 16 1 0
BITMAP
0080
0300
0400
0000
8020
4040
2080
3180
1100
0A00
0400
0400
0400
0400
0400
0400
ENDCHAR
STARTCHAR Thorn
ENCODING 222
SWIDTH 787 0
DWIDTH 14 0
BBX 11 12 2 0
BITMAP
8000
8000
FF80
8040
8020
8020
8020
8040
FF80
8000
8000
8000
ENDCHAR
STARTCHAR germandbls
ENCODING 223
SWIDTH 863 0
DWIDTH 16 0
BBX 13 12 2 0
BITMAP
1FC0
2020
4010
8010
8020
8FC0
8030
8008
8008
8008
9010
8FE0
ENDCHAR
STARTCHAR agrave
ENCODING 224
SWIDTH 888 0
DWIDTH 16 0
BBX 13 16 1 0
BITMAP
0800
0600
0100
0000
1FC0
6030
0008
0008
0008
03F8
3C08
4008
8008
8008
C078
3F88
ENDCHAR
STARTCHAR aacute
ENCODING 225
SWIDTH 888 0
DWIDTH 16 0
BBX 13 16 1 0
BITMAP
0040
0180
0200
0000
1FC0
6030
0008
0008
0008
03F8
3C08
4008
8008
8008
C078
3F88
ENDCHAR
STARTCHAR acircumflex
ENCODING 226
SWIDTH 888 0
DWIDTH 16 0
BBX 13 16 1 0
BITMAP
0200
0D80
1040
0000
1FC0
6030
0008
0008
0008
03F8
3C08
4008
8008
8008
C078
3F88
ENDCHAR
STARTCHAR atilde
ENCODING 227
SWIDTH 888 0
DWIDTH 16 0
BBX 13 15 1 0
BITMAP
0640
0980
0000
1FC0
6030
0008
0008
0008
03F8
3C08
4008
8008
8008
C078
3F88
ENDCHAR
STARTCHAR adieresis
ENCODING 228
SWIDTH 888 0
DWIDTH 16 0
BBX 13 14 1 0
BITMAP
0880
0000
1FC0
6030
0008
0008
0008
03F8
3C08
4008
8008
8008
C078
3F88
ENDCHAR
STARTCHAR aring
ENCODING 229
SWIDTH 888 0
DWIDTH 16 0
BBX 13 16 1 0
BITMAP
0700
0880
0700
0000
1FC0
6030
0008
0008
0008
03F8
3C08
4008
8008
8008
C078
3F88
ENDCHAR
STARTCHAR ae
ENCODING 230
SWIDTH 1551 0
DWIDTH 28 0
BBX 26 12 1 0
BITMAP
1FC0FC00
60330300
000C0080
00080040
00080040
03FFFFC0
3C080000
40080000
80040000
800C0000
C0730080
3F80FF00
ENDCHAR
STARTCHAR ccedilla
ENCODING 231
SWIDTH 869 0
DWIDTH 16 0
BBX 13 16 1 -4
BITMAP
0FC0
3030
4008
4000
8000
8000
8000
8000
4000
4008
3030
0FC0
0100
0100
0080
0700
ENDCHAR
STARTCHAR egrave
ENCODING 232
SWIDTH 910 0
DWIDTH 16 0
BBX 14 16 1 0
BITMAP
0400
0E00
0100
0000
0FC0
3030
4008
4004
8004
FFFC
8000
8000
4000
4000
3008
0FF0
ENDCHAR
STARTCHAR eacute
ENCODING 233
SWIDTH 910 0
DWIDTH 16 0
BBX 14 16 1 0
BITMAP
0040
00C0
0300
0000
0FC0
3030
4008
4004
8004
FFFC
8000
8000
4000
4000
3008
0FF0
ENDCHAR
STARTCHAR ecircumflex
ENCODING 234
SWIDTH 910 0
DWIDTH 16 0
BBX 14 16 1 0
BITMAP
0180
0240
0C20
0000
0FC0
3030
4008
4004
8004
FFFC
8000
8000
4000
4000
3008
0FF0
ENDCHAR
STARTCHAR edieresis
ENCODING 235
SWIDTH 910 0
DWIDTH 16 0
BBX 14 14 1 0
BITMAP
0440
0000
0FC0
3030
4008
4004
8004
FFFC
8000
8000
4000
4000
3008
0FF0
ENDCHAR
STARTCHAR igrave
ENCODING 236
SWIDTH 287 0
DWIDTH 5 0
BBX 4 16 0 0
BITMAP
80
60
10
00
20
20
20
20
20
20
20
20
20
20
20
20
ENDCHAR
STARTCHAR iacute
ENCODING 237
SWIDTH 287 0
DWIDTH 5 0
BBX 4 16 2 0
BITMAP
10
60
80
00
80
80
80
80
80
80
80
80
80
80
80
80
ENDCHAR
STARTCHAR icircumflex
ENCODING 238
SWIDTH 287 0
DWIDTH 5 0
BBX 7 16 -1 0
BITMAP
10
6C
82
00
10
10
10
10
10
10
10
10
10
10
10
10
ENDCHAR
STARTCHAR idieresis
ENCODING 239
SWIDTH 287 0
DWIDTH 5 0
BBX 5 14 0 0
BITMAP
88
00
20
20
20
20
20
20
20
20
20
20
20
20
ENDCHAR
STARTCHAR eth
ENCODING 240
SWIDTH 910 0
DWIDTH 16 0
BBX 15 12 0 0
BITMAP
3FE0
2018
2004
2006
2002
FF02
2002
2002
2002
2004
2018
3FE0
ENDCHAR
STARTCHAR ntilde
ENCODING 241
SWIDTH 933 0
DWIDTH 17 0
BBX 13 15 2 0
BITMAP
0C80
0B80
1000
87E0
B810
C008
8008
8008
8008
8008
8008
8008
8008
8008
8008
ENDCHAR
STARTCHAR ograve
ENCODING 242
SWIDTH 983 0
DWIDTH 18 0
BBX 15 16 1 0
BITMAP
0400
0300
0080
0000
0FE0
3018
4004
C004
8002
8002
8002
8002
4004
4004
3018
0FE0
ENDCHAR
STARTCHAR oacute
ENCODING 243
SWIDTH 983 0
DWIDTH 18 0
BBX 15 16 1 0
BITMAP
0020
00C0
0100
0000
0FE0
3018
4004
C004
8002
8002
8002
8002
4004
4004
3018
0FE0
ENDCHAR
STARTCHAR ocircumflex
ENCODING 244
SWIDTH 983 0
DWIDTH 18 0
BBX 15 16 1 0
BITMAP
0100
06C0
0820
0000
0FE0
3018
4004
C004
8002
8002
8002
8002
4004
4004
3018
0FE0
ENDCHAR
STARTCHAR otilde
ENCODING 245
SWIDTH 983 0
DWIDTH 18 0
BBX 15 15 1 0
BITMAP
0320
04C0
0000
0FE0
3018
4004
C004
8002
8002
8002
8002
4004
4004
3018
0FE0
ENDCHAR
STARTCHAR odieresis
ENCODING 246
SWIDTH 983 0
DWIDTH 18 0
BBX 15 14 1 0
BITMAP
0440
0000
0FE0
3018
4004
C004
8002
8002
8002
8002
4004
4004
3018
0FE0
ENDCHAR
STARTCHAR divide
ENCODING 247
SWIDTH 634 0
DWIDTH 11 0
BBX 9 7 1 3
BITMAP
0800
0000
0000
FF80
0000
0000
0800
ENDCHAR
STARTCHAR oslash
ENCODING 248
SWIDTH 983 0
DWIDTH 18 0
BBX 15 14 1 -1
BITMAP
0008
0FF0
3018
4024
4044
8082
8102
8102
8202
4404
4804
3018
1FE0
2000
ENDCHAR
STARTCHAR ugrave
ENCODING 249
SWIDTH 931 0
DWIDTH 17 0
BBX 13 16 2 0
BITMAP
0800
0C00
0300
0000
8008
8008
8008
8008
8008
8008
8008
8008
8008
8038
40C8
3F08
ENDCHAR
STARTCHAR uacute
ENCODING 250
SWIDTH 931 0
DWIDTH 17 0
BBX 13 16 2 0
BITMAP
0080
01C0
0200
0000
8008
8008
8008
8008
8008
8008
8008
8008
8008
8038
40C8
3F08
ENDCHAR
STARTCHAR ucircumflex
ENCODING 251
SWIDTH 931 0
DWIDTH 17 0
BBX 13 16 2 0
BITMAP
0600
0D00
10C0
0000
8008
8008
8008
8008
8008
8008
8008
8008
8008
8038
40C8
3F08
ENDCHAR
STARTCHAR udieresis
ENCODING 252
SWIDTH 931 0
DWIDTH 17 0
BBX 13 14 2 0
BITMAP
0880
0000
8008
8008
8008
8008
8008
8008
8008
8008
8008
8038
40C8
3F08
ENDCHAR
STARTCHAR yacute
ENCODING 253
SWIDTH 911 0
DWIDTH 16 0
BBX 12 16 2 0
BITMAP
0080
0300
0600
0000
8010
8010
8010
8010
8010
4030
20D0
1F10
0010
0020
8040
7F80
ENDCHAR
STARTCHAR thorn
ENCODING 254
SWIDTH 787 0
DWIDTH 14 0
BBX 11 12 2 0
BITMAP
8000
8000
FF80
8040
8020
8020
8020
8040
FF80
8000
8000
8000
ENDCHAR
STARTCHAR ydieresis
ENCODING 255
SWIDTH 911 0
DWIDTH 16 0
BBX 12 14 2 0
BITMAP
1100
0000
8010
8010
8010
8010
8010
4030
20D0
1F10
0010
0020
8040
7F80
ENDCHAR
STARTCHAR Amacron
ENCODING 256
SWIDTH 812 0
DWIDTH 15 0
BBX 13 14 1 0
BITMAP
0F80
0000
0200
0500
0500
0880
0880
1040
1040
2020
3FE0
4010
4010
8008
ENDCHAR
STARTCHAR amacron
ENCODING 257
SWIDTH 888 0
DWIDTH 16 0
BBX 13 14 1 0
BITMAP
0F80
0000
1FC0
6030
0008
0008
0008
03F8
3C08
4008
8008
8008
C078
3F88
ENDCHAR
STARTCHAR Abreve
ENCODING 258
SWIDTH 812 0
DWIDTH 15 0
BBX 13 15 1 0
BITMAP
08C0
0780
0000
0200
0500
0500
0880
0880
1040
1040
2020
3FE0
4010
4010
8008
ENDCHAR
STARTCHAR abreve
ENCODING 259
SWIDTH 888 0
DWIDTH 16 0
BBX 13 15 1 0
BITMAP
0C40
0780
0000
1FC0
6030
0008
0008
0008
03F8
3C08
4008
8008
8008
C078
3F88
ENDCHAR
STARTCHAR Aogonek
ENCODING 260
SWIDTH 812 0
DWIDTH 15 0
BBX 15 15 1 -3
BITMAP
0200
0500
0500
0880
0880
1040
1040
2020
3FE0
4010
4010
8008
0010
0010
000E
ENDCHAR
STARTCHAR aogonek
ENCODING 261
SWIDTH 888 0
DWIDTH 16 0
BBX 15 15 1 -3
BITMAP
1FC0
6030
0008
0008
0008
03F8
3C08
4008
8008
8008
C078
3F88
0010
0010
000E
ENDCHAR
STARTCHAR Cacute
ENCODING 262
SWIDTH 869 0
DWIDTH 16 0
BBX 13 16 1 0
BITMAP
0020
00C0
0100
0000
0FC0
3030
4008
4000
8000
8000
8000
8000
4000
4008
3030
0FC0
ENDCHAR
STARTCHAR cacute
ENCODING 263
SWIDTH 869 0
DWIDTH 16 0
BBX 13 16 1 0
BITMAP
0020
00C0
0100
0000
0FC0
3030
4008
4000
8000
8000
8000
8000
4000
4008
3030
0FC0
ENDCHAR
STARTCHAR Ccircumflex
ENCODING 264
SWIDTH 869 0
DWIDTH 16 0
BBX 13 16 1 0
BITMAP
0100
06C0
0820
0000
0FC0
3030
4008
4000
8000
8000
8000
8000
4000
4008
3030
0FC0
ENDCHAR
STARTCHAR ccircumflex
ENCODING 265
SWIDTH 869 0
DWIDTH 16 0
BBX 13 16 1 0
BITMAP
0100
06C0
0820
0000
0FC0
3030
4008
4000
8000
8000
8000
8000
4000
4008
3030
0FC0
ENDCHAR
STARTCHAR Cdotaccent
ENCODING 266
SWIDTH 869 0
DWIDTH 16 0
BBX 13 14 1 0
BITMAP
0100
0000
0FC0
3030
4008
4000
8000
8000
8000
8000
4000
4008
3030
0FC0
ENDCHAR
STARTCHAR cdotaccent
ENCODING 267
SWIDTH 869 0
DWIDTH 16 0
BBX 13 14 1 0
BITMAP
0100
0000
0FC0
3030
4008
4000
8000
8000
8000
8000
4000
4008
3030
0FC0
ENDCHAR
STARTCHAR Ccaron
ENCODING 268
SWIDTH 869 0
DWIDTH 16 0
BBX 13 16 1 0
BITMAP
0820
06C0
0100
0000
0FC0
3030
4008
4000
8000
8000
8000
8000
4000
4008
3030
0FC0
ENDCHAR
STARTCHAR ccaron
ENCODING 269
SWIDTH 869 0
DWIDTH 16 0
BBX 13 16 1 0
BITMAP
0820
06C0
0100
0000
0FC0
3030
4008
4000
8000
8000
8000
8000
4000
4008
3030
0FC0
ENDCHAR
STARTCHAR Dcaron
ENCODING 270
SWIDTH 910 0
DWIDTH 16 0
BBX 13 16 2 0
BITMAP
4100
3600
0800
0000
FF80
8060
8010
8008
8008
8008
8008
8008
8008
8010
8060
FF80
ENDCHAR
STARTCHAR dcaron
ENCODING 271
SWIDTH 910 0
DWIDTH 16 0
BBX 13 16 2 0
BITMAP
4100
3600
0800
0000
FF80
8060
8010
8008
8008
8008
8008
8008
8008
8010
8060
FF80
ENDCHAR
STARTCHAR Dcroat
ENCODING 272
SWIDTH 910 0
DWIDTH 16 0
BBX 15 12 0 0
BITMAP
3FE0
2018
2004
2006
2002
FF02
2002
2002
2002
2004
2018
3FE0
ENDCHAR
STARTCHAR dcroat
ENCODING 273
SWIDTH 910 0
DWIDTH 16 0
BBX 15 12 0 0
BITMAP
3FE0
2018
2004
2006
2002
FF02
2002
2002
2002
2004
2018
3FE0
ENDCHAR
STARTCHAR Emacron
ENCODING 274
SWIDTH 754 0
DWIDTH 14 0
BBX 10 14 2 0
BITMAP
3E00
0000
FFC0
8000
8000
8000
8000
FF80
8000
8000
8000
8000
8000
FFC0
ENDCHAR
STARTCHAR emacron
ENCODING 275
SWIDTH 910 0
DWIDTH 16 0
BBX 14 14 1 0
BITMAP
07C0
0000
0FC0
3030
4008
4004
8004
FFFC
8000
8000
4000
4000
3008
0FF0
ENDCHAR
STARTCHAR Ebreve
ENCODING 276
SWIDTH 754 0
DWIDTH 14 0
BBX 10 15 2 0
BITMAP
3100
1E00
0000
FFC0
8000
8000
8000
8000
FF80
8000
8000
8000
8000
8000
FFC0
ENDCHAR
STARTCHAR ebreve
ENCODING 277
SWIDTH 910 0
DWIDTH 16 0
BBX 14 15 1 0
BITMAP
0C40
0380
0000
0FC0
3030
4008
4004
8004
FFFC
8000
8000
4000
4000
3008
0FF0
ENDCHAR
STARTCHAR Edotaccent
ENCODING 278
SWIDTH 754 0
DWIDTH 14 0
BBX 10 14 2 0
BITMAP
0800
0000
FFC0
8000
8000
8000
8000
FF80
8000
8000
8000
8000
8000
FFC0
ENDCHAR
STARTCHAR edotaccent
ENCODING 279
SWIDTH 910 0
DWIDTH 16 0
BBX 14 14 1 0
BITMAP
0200
0000
0FC0
3030
4008
4004
8004
FFFC
8000
8000
4000
4000
3008
0FF0
ENDCHAR
STARTCHAR Eogonek
ENCODING 280
SWIDTH 754 0
DWIDTH 14 0
BBX 10 15 2 -3
BITMAP
FFC0
8000
8000
8000
8000
FF80
8000
8000
8000
8000
8000
FFC0
0100
0200
01C0
ENDCHAR
STARTCHAR eogonek
ENCODING 281
SWIDTH 910 0
DWIDTH 16 0
BBX 14 15 1 -3
BITMAP
0FC0
3030
4008
4004
8004
FFFC
8000
8000
4000
4000
3008
0FF0
0020
0020
001C
ENDCHAR
STARTCHAR Ecaron
ENCODING 282
SWIDTH 754 0
DWIDTH 14 0
BBX 10 16 2 0
BITMAP
4100
3600
0800
0000
FFC0
8000
8000
8000
8000
FF80
8000
8000
8000
8000
8000
FFC0
ENDCHAR
STARTCHAR ecaron
ENCODING 283
SWIDTH 910 0
DWIDTH 16 0
BBX 14 16 1 0
BITMAP
0840
1480
0300
0000
0FC0
3030
4008
4004
8004
FFFC
8000
8000
4000
4000
3008
0FF0
ENDCHAR
STARTCHAR Gcircumflex
ENCODING 284
SWIDTH 910 0
DWIDTH 16 0
BBX 14 16 1 0
BITMAP
0100
06C0
0820
0000
07E0
3818
4004
4000
8000
8000
80FC
8004
4004
4004
3004
0FF8
ENDCHAR
STARTCHAR gcircumflex
ENCODING 285
SWIDTH 910 0
DWIDTH 16 0
BBX 14 16 1 0
BITMAP
0100
06C0
0820
0000
07E0
3818
4004
4000
8000
8000
80FC
8004
4004
4004
3004
0FF8
ENDCHAR
STARTCHAR Gbreve
ENCODING 286
SWIDTH 910 0
DWIDTH 16 0
BBX 14 15 1 0
BITMAP
0620
03C0
0000
07E0
3818
4004
4000
8000
8000
80FC
8004
4004
4004
3004
0FF8
ENDCHAR
STARTCHAR gbreve
ENCODING 287
SWIDTH 910 0
DWIDTH 16 0
BBX 14 15 1 0
BITMAP
0620
03C0
0000
07E0
3818
4004
4000
8000
8000
80FC
8004
4004
4004
3004
0FF8
ENDCHAR
STARTCHAR Gdotaccent
ENCODING 288
SWIDTH 910 0
DWIDTH 16 0
BBX 14 14 1 0
BITMAP
0100
0000
07E0
3818
4004
4000
8000
8000
80FC
8004
4004
4004
3004
0FF8
ENDCHAR
STARTCHAR gdotaccent
ENCODING 289
SWIDTH 910 0
DWIDTH 16 0
BBX 14 14 1 0
BITMAP
0100
0000
07E0
3818
4004
4000
8000
8000
80FC
8004
4004
4004
3004
0FF8
ENDCHAR
STARTCHAR Gcommaaccent
ENCODING 290
SWIDTH 910 0
DWIDTH 16 0
BBX 14 15 1 -3
BITMAP
07E0
3818
4004
4000
8000
8000
80FC
8004
4004
4004
3004
0FF8
0000
0080
0080
ENDCHAR
STARTCHAR gcommaaccent
ENCODING 291
SWIDTH 910 0
DWIDTH 16 0
BBX 14 15 1 -3
BITMAP
07E0
3818
4004
4000
8000
8000
80FC
8004
4004
4004
3004
0FF8
0000
0080
0080
ENDCHAR
STARTCHAR Hcircumflex
ENCODING 292
SWIDTH 949 0
DWIDTH 17 0
BBX 13 16 2 0
BITMAP
0200
0D80
1040
0000
8008
8008
8008
8008
8008
FFF8
8008
8008
8008
8008
8008
8008
ENDCHAR
STARTCHAR hcircumflex
ENCODING 293
SWIDTH 949 0
DWIDTH 17 0
BBX 13 16 2 0
BITMAP
0200
0D80
1040
0000
8008
8008
8008
8008
8008
FFF8
8008
8008
8008
8008
8008
8008
ENDCHAR
STARTCHAR Hbar
ENCODING 294
SWIDTH 949 0
DWIDTH 17 0
BBX 17 12 0 0
BITMAP
200200
200200
FFFF80
200200
200200
3FFE00
200200
200200
200200
200200
200200
200200
ENDCHAR
STARTCHAR hbar
ENCODING 295
SWIDTH 949 0
DWIDTH 17 0
BBX 17 12 0 0
BITMAP
200200
200200
FFFF80
200200
200200
3FFE00
200200
200200
200200
200200
200200
200200
ENDCHAR
STARTCHAR Itilde
ENCODING 296
SWIDTH 287 0
DWIDTH 5 0
BBX 6 15 0 0
BITMAP
64
98
00
20
20
20
20
20
20
20
20
20
20
20
20
ENDCHAR
STARTCHAR itilde
ENCODING 297
SWIDTH 287 0
DWIDTH 5 0
BBX 6 15 0 0
BITMAP
64
98
00
20
20
20
20
20
20
20
20
20
20
20
20
ENDCHAR
STARTCHAR Imacron
ENCODING 298
SWIDTH 287 0
DWIDTH 5 0
BBX 5 14 0 0
BITMAP
F8
00
20
20
20
20
20
20
20
20
20
20
20
20
ENDCHAR
STARTCHAR imacron
ENCODING 299
SWIDTH 287 0
DWIDTH 5 0
BBX 5 14 0 0
BITMAP
F8
00
20
20
20
20
20
20
20
20
20
20
20
20
ENDCHAR
STARTCHAR Ibreve
ENCODING 300
SWIDTH 287 0
DWIDTH 5 0
BBX 6 15 0 0
BITMAP
8C
78
00
20
20
20
20
20
20
20
20
20
20
20
20
ENDCHAR
STARTCHAR ibreve
ENCODING 301
SWIDTH 287 0
DWIDTH 5 0
BBX 6 15 0 0
BITMAP
8C
78
00
20
20
20
20
20
20
20
20
20
20
20
20
ENDCHAR
STARTCHAR Iogonek
ENCODING 302
SWIDTH 287 0
DWIDTH 5 0
BBX 4 15 0 -3
BITMAP
20
20
20
20
20
20
20
20
20
20
20
20
40
80
70
ENDCHAR
STARTCHAR iogonek
ENCODING 303
SWIDTH 287 0
DWIDTH 5 0
BBX 4 15 0 -3
BITMAP
20
20
20
20
20
20
20
20
20
20
20
20
40
80
70
ENDCHAR
STARTCHAR Idotaccent
ENCODING 304
SWIDTH 287 0
DWIDTH 5 0
BBX 1 14 2 0
BITMAP
80
00
80
80
80
80
80
80
80
80
80
80
80
80
ENDCHAR
STARTCHAR dotlessi
ENCODING 305
SWIDTH 287 0
DWIDTH 5 0
BBX 1 12 2 0
BITMAP
80
80
80
80
80
80
80
80
80
80
80
80
ENDCHAR
STARTCHAR IJ
ENCODING 306
SWIDTH 877 0
DWIDTH 16 0
BBX 12 12 2 0
BITMAP
8010
8010
8010
8010
8010
8010
8010
8010
8010
8010
9020
8FC0
ENDCHAR
STARTCHAR ij
ENCODING 307
SWIDTH 877 0
DWIDTH 16 0
BBX 12 12 2 0
BITMAP
8010
8010
8010
8010
8010
8010
8010
8010
8010
8010
9020
8FC0
ENDCHAR
STARTCHAR Jcircumflex
ENCODING 308
SWIDTH 590 0
DWIDTH 11 0
BBX 12 16 0 0
BITMAP
00C0
0160
0610
0000
0080
0080
0080
0080
0080
0080
0080
0080
0080
0080
8100
7E00
ENDCHAR
STARTCHAR jcircumflex
ENCODING 309
SWIDTH 590 0
DWIDTH 11 0
BBX 12 16 0 0
BITMAP
00C0
0160
0610
0000
0080
0080
0080
0080
0080
0080
0080
0080
0080
0080
8100
7E00
ENDCHAR
STARTCHAR Kcommaaccent
ENCODING 310
SWIDTH 806 0
DWIDTH 15 0
BBX 12 15 2 -3
BITMAP
8030
80C0
8300
8400
9800
E000
B000
8800
8600
8100
80C0
8030
0000
0C00
0800
ENDCHAR
STARTCHAR kcommaaccent
ENCODING 311
SWIDTH 867 0
DWIDTH 16 0
BBX 12 15 2 -3
BITMAP
8020
8020
8040
8080
8300
FC00
8380
8040
8020
8020
8010
8010
0000
0400
0400
ENDCHAR
STARTCHAR kgreenlandic
ENCODING 312
SWIDTH 867 0
DWIDTH 16 0
BBX 12 12 2 0
BITMAP
8020
8020
8040
8080
8300
FC00
8380
8040
8020
8020
8010
8010
ENDCHAR
STARTCHAR Lacute
ENCODING 313
SWIDTH 701 0
DWIDTH 13 0
BBX 10 16 2 0
BITMAP
1000
6000
8000
0000
8000
8000
8000
8000
8000
8000
8000
8000
8000
8000
8000
FFC0
ENDCHAR
STARTCHAR lacute
ENCODING 314
SWIDTH 709 0
DWIDTH 13 0
BBX 11 16 2 0
BITMAP
1000
6000
8000
0000
8000
8000
8000
8000
8000
8000
8000
8000
8000
8000
4000
3FE0
ENDCHAR
STARTCHAR Lcommaaccent
ENCODING 315
SWIDTH 701 0
DWIDTH 13 0
BBX 10 15 2 -3
BITMAP
8000
8000
8000
8000
8000
8000
8000
8000
8000
8000
8000
FFC0
0000
0800
0800
ENDCHAR
STARTCHAR lcommaaccent
ENCODING 316
SWIDTH 709 0
DWIDTH 13 0
BBX 11 15 2 -3
BITMAP
8000
8000
8000
8000
8000
8000
8000
8000
8000
8000
4000
3FE0
0000
0400
0800
ENDCHAR
STARTCHAR Lcaron
ENCODING 317
SWIDTH 701 0
DWIDTH 13 0
BBX 10 12 2 0
BITMAP
8100
8100
8200
8000
8000
8000
8000
8000
8000
8000
8000
FFC0
ENDCHAR
STARTCHAR lcaron
ENCODING 318
SWIDTH 709 0
DWIDTH 13 0
BBX 11 12 2 0
BITMAP
8100
8100
8200
8000
8000
8000
8000
8000
8000
8000
4000
3FE0
ENDCHAR
STARTCHAR Ldot
ENCODING 319
SWIDTH 701 0
DWIDTH 13 0
BBX 10 12 2 0
BITMAP
8000
8000
8000
8000
8000
8300
8300
8000
8000
8000
8000
FFC0
ENDCHAR
STARTCHAR ldotaccent
ENCODING 320
SWIDTH 709 0
DWIDTH 13 0
BBX 11 12 2 0
BITMAP
8000
8000
8000
8000
8000
8300
8300
8000
8000
8000
4000
3FE0
ENDCHAR
STARTCHAR Lslash
ENCODING 321
SWIDTH 701 0
DWIDTH 13 0
BBX 12 12 0 0
BITMAP
2000
2000
2000
2000
2600
3800
E000
2000
2000
2000
2000
3FF0
ENDCHAR
STARTCHAR lslash
ENCODING 322
SWIDTH 709 0
DWIDTH 13 0
BBX 13 12 0 0
BITMAP
2000
2000
2000
2000
2600
3800
E000
2000
2000
2000
1000
0FF8
ENDCHAR
STARTCHAR Nacute
ENCODING 323
SWIDTH 936 0
DWIDTH 17 0
BBX 12 16 2 0
BITMAP
0080
01C0
0200
0000
8010
C010
A010
9010
8810
8410
8210
8110
8090
8050
8030
8010
ENDCHAR
STARTCHAR nacute
ENCODING 324
SWIDTH 933 0
DWIDTH 17 0
BBX 13 16 2 0
BITMAP
0080
0180
0600
0000
87E0
B810
C008
8008
8008
8008
8008
8008
8008
8008
8008
8008
ENDCHAR
STARTCHAR Ncommaaccent
ENCODING 325
SWIDTH 936 0
DWIDTH 17 0
BBX 12 15 2 -3
BITMAP
8010
C010
A010
9010
8810
8410
8210
8110
8090
8050
8030
8010
0000
0200
0400
ENDCHAR
STARTCHAR ncommaaccent
ENCODING 326
SWIDTH 933 0
DWIDTH 17 0
BBX 13 15 2 -3
BITMAP
87E0
B810
C008
8008
8008
8008
8008
8008
8008
8008
8008
8008
0000
0200
0400
ENDCHAR
STARTCHAR Ncaron
ENCODING 327
SWIDTH 936 0
DWIDTH 17 0
BBX 12 16 2 0
BITMAP
10C0
0D00
0600
0000
8010
C010
A010
9010
8810
8410
8210
8110
8090
8050
8030
8010
ENDCHAR
STARTCHAR ncaron
ENCODING 328
SWIDTH 933 0
DWIDTH 17 0
BBX 13 16 2 0
BITMAP
1080
2900
0600
0000
87E0
B810
C008
8008
8008
8008
8008
8008
8008
8008
8008
8008
ENDCHAR
STARTCHAR napostrophe
ENCODING 329
SWIDTH 1025 0
DWIDTH 18 0
BBX 17 12 0 0
BITMAP
487C00
4B8300
4C0100
880080
080080
080080
080080
080080
080080
080080
080080
080080
ENDCHAR
STARTCHAR Eng
ENCODING 330
SWIDTH 936 0
DWIDTH 17 0
BBX 12 12 2 0
BITMAP
C010
A010
9010
8810
8610
8110
8090
8050
8030
8010
8420
83C0
ENDCHAR
STARTCHAR eng
ENCODING 331
SWIDTH 933 0
DWIDTH 17 0
BBX 13 12 2 0
BITMAP
87E0
B810
C008
8008
8008
8008
8008
8008
8008
8008
8410
83E0
ENDCHAR
STARTCHAR Omacron
ENCODING 332
SWIDTH 983 0
DWIDTH 18 0
BBX 15 14 1 0
BITMAP
07C0
0000
0FE0
3018
4004
C004
8002
8002
8002
8002
4004
4004
3018
0FE0
ENDCHAR
STARTCHAR omacron
ENCODING 333
SWIDTH 983 0
DWIDTH 18 0
BBX 15 14 1 0
BITMAP
07C0
0000
0FE0
3018
4004
C004
8002
8002
8002
8002
4004
4004
3018
0FE0
ENDCHAR
STARTCHAR Obreve
ENCODING 334
SWIDTH 983 0
DWIDTH 18 0
BBX 15 15 1 0
BITMAP
0420
03C0
0000
0FE0
3018
4004
C004
8002
8002
8002
8002
4004
4004
3018
0FE0
ENDCHAR
STARTCHAR obreve
ENCODING 335
SWIDTH 983 0
DWIDTH 18 0
BBX 15 15 1 0
BITMAP
0420
03C0
0000
0FE0
3018
4004
C004
8002
8002
8002
8002
4004
4004
3018
0FE0
ENDCHAR
STARTCHAR Ohungarumlaut
ENCODING 336
SWIDTH 983 0
DWIDTH 18 0
BBX 15 16 1 0
BITMAP
0120
0240
0480
0000
0FE0
3018
4004
C004
8002
8002
8002
8002
4004
4004
3018
0FE0
ENDCHAR
STARTCHAR ohungarumlaut
ENCODING 337
SWIDTH 983 0
DWIDTH 18 0
BBX 15 16 1 0
BITMAP
0120
0240
0480
0000
0FE0
3018
4004
C004
8002
8002
8002
8002
4004
4004
3018
0FE0
ENDCHAR
STARTCHAR OE
ENCODING 338
SWIDTH 1338 0
DWIDTH 24 0
BBX 21 12 2 0
BITMAP
0FFFF8
301000
401000
401000
801000
801FF0
801000
801000
401000
401000
301000
0FFFF8
ENDCHAR
STARTCHAR oe
ENCODING 339
SWIDTH 1688 0
DWIDTH 30 0
BBX 28 12 1 0
BITMAP
0FE03F00
3018C0C0
40050020
C0050010
80020010
8003FFF0
80020000
80020000
40050000
40050000
3018C020
0FE03FC0
ENDCHAR
STARTCHAR Racute
ENCODING 340
SWIDTH 833 0
DWIDTH 15 0
BBX 12 16 2 0
BITMAP
0100
0600
0800
0000
FF80
8040
8020
8020
8020
8040
FF80
8080
8080
8040
8020
8010
ENDCHAR
STARTCHAR racute
ENCODING 341
SWIDTH 609 0
DWIDTH 11 0
BBX 9 16 2 0
BITMAP
0200
0C00
1800
0000
8F80
B000
C000
8000
8000
8000
8000
8000
8000
8000
8000
8000
ENDCHAR
STARTCHAR Rcommaaccent
ENCODING 342
SWIDTH 833 0
DWIDTH 15 0
BBX 12 15 2 -3
BITMAP
FF80
8040
8020
8020
8020
8040
FF80
8080
8080
8040
8020
8010
0000
0400
0800
ENDCHAR
STARTCHAR rcommaaccent
ENCODING 343
SWIDTH 609 0
DWIDTH 11 0
BBX 9 15 2 -3
BITMAP
8F80
B000
C000
8000
8000
8000
8000
8000
8000
8000
8000
8000
0000
8000
8000
ENDCHAR
STARTCHAR Rcaron
ENCODING 344
SWIDTH 833 0
DWIDTH 15 0
BBX 12 16 2 0
BITMAP
4100
3600
0800
0000
FF80
8040
8020
8020
8020
8040
FF80
8080
8080
8040
8020
8010
ENDCHAR
STARTCHAR rcaron
ENCODING 345
SWIDTH 609 0
DWIDTH 11 0
BBX 9 16 2 0
BITMAP
8200
6C00
1000
0000
8F80
B000
C000
8000
8000
8000
8000
8000
8000
8000
8000
8000
ENDCHAR
STARTCHAR Sacute
ENCODING 346
SWIDTH 787 0
DWIDTH 14 0
BBX 11 16 2 0
BITMAP
0100
0600
0C00
0000
3F80
4040
8000
8000
4000
3C00
0380
0040
0020
0020
8040
7F80
ENDCHAR
STARTCHAR sacute
ENCODING 347
SWIDTH 787 0
DWIDTH 14 0
BBX 11 16 2 0
BITMAP
0100
0600
0C00
0000
3F80
4040
8000
8000
4000
3C00
0380
0040
0020
0020
8040
7F80
ENDCHAR
STARTCHAR Scircumflex
ENCODING 348
SWIDTH 787 0
DWIDTH 14 0
BBX 11 16 2 0
BITMAP
0800
1600
6100
0000
3F80
4040
8000
8000
4000
3C00
0380
0040
0020
0020
8040
7F80
ENDCHAR
STARTCHAR scircumflex
ENCODING 349
SWIDTH 787 0
DWIDTH 14 0
BBX 11 16 2 0
BITMAP
0800
1600
6100
0000
3F80
4040
8000
8000
4000
3C00
0380
0040
0020
0020
8040
7F80
ENDCHAR
STARTCHAR Scedilla
ENCODING 350
SWIDTH 787 0
DWIDTH 14 0
BBX 11 16 2 -4
BITMAP
3F80
4040
8000
8000
4000
3C00
0380
0040
0020
0020
8040
7F80
0400
0400
0200
1C00
ENDCHAR
STARTCHAR scedilla
ENCODING 351
SWIDTH 787 0
DWIDTH 14 0
BBX 11 16 2 -4
BITMAP
3F80
4040
8000
8000
4000
3C00
0380
0040
0020
0020
8040
7F80
0400
0400
0200
1C00
ENDCHAR
STARTCHAR Scaron
ENCODING 352
SWIDTH 787 0
DWIDTH 14 0
BBX 11 16 2 0
BITMAP
2080
1B00
0400
0000
3F80
4040
8000
8000
4000
3C00
0380
0040
0020
0020
8040
7F80
ENDCHAR
STARTCHAR scaron
ENCODING 353
SWIDTH 787 0
DWIDTH 14 0
BBX 11 16 2 0
BITMAP
2080
1B00
0400
0000
3F80
4040
8000
8000
4000
3C00
0380
0040
0020
0020
8040
7F80
ENDCHAR
STARTCHAR Tcommaaccent
ENCODING 354
SWIDTH 708 0
DWIDTH 13 0
BBX 13 15 0 -3
BITMAP
FFF8
0200
0200
0200
0200
0200
0200
0200
0200
0200
0200
0200
0000
0200
0400
ENDCHAR
STARTCHAR tcommaaccent
ENCODING 355
SWIDTH 708 0
DWIDTH 13 0
BBX 13 15 0 -3
BITMAP
FFF8
0200
0200
0200
0200
0200
0200
0200
0200
0200
0200
0200
0000
0200
0400
ENDCHAR
STARTCHAR Tcaron
ENCODING 356
SWIDTH 708 0
DWIDTH 13 0
BBX 13 16 0 0
BITMAP
10C0
0D00
0600
0000
FFF8
0200
0200
0200
0200
0200
0200
0200
0200
0200
0200
0200
ENDCHAR
STARTCHAR tcaron
ENCODING 357
SWIDTH 708 0
DWIDTH 13 0
BBX 13 16 0 0
BITMAP
10C0
0D00
0600
0000
FFF8
0200
0200
0200
0200
0200
0200
0200
0200
0200
0200
0200
ENDCHAR
STARTCHAR Tbar
ENCODING 358
SWIDTH 708 0
DWIDTH 13 0
BBX 13 12 0 0
BITMAP
FFF8
0200
0200
0200
0200
3FE0
0200
0200
0200
0200
0200
0200
ENDCHAR
STARTCHAR tbar
ENCODING 359
SWIDTH 708 0
DWIDTH 13 0
BBX 13 12 0 0
BITMAP
FFF8
0200
0200
0200
0200
3FE0
0200
0200
0200
0200
0200
0200
ENDCHAR
STARTCHAR Utilde
ENCODING 360
SWIDTH 891 0
DWIDTH 16 0
BBX 12 15 2 0
BITMAP
0C80
1300
0000
8010
8010
8010
8010
8010
8010
8010
8010
8010
8010
6060
1F80
ENDCHAR
STARTCHAR utilde
ENCODING 361
SWIDTH 931 0
DWIDTH 17 0
BBX 13 15 2 0
BITMAP
0E40
0980
0000
8008
8008
8008
8008
8008
8008
8008
8008
8008
8038
40C8
3F08
ENDCHAR
STARTCHAR Umacron
ENCODING 362
SWIDTH 891 0
DWIDTH 16 0
BBX 12 14 2 0
BITMAP
1F00
0000
8010
8010
8010
8010
8010
8010
8010
8010
8010
8010
6060
1F80
ENDCHAR
STARTCHAR umacron
ENCODING 363
SWIDTH 931 0
DWIDTH 17 0
BBX 13 14 2 0
BITMAP
0F80
0000
8008
8008
8008
8008
8008
8008
8008
8008
8008
8038
40C8
3F08
ENDCHAR
STARTCHAR Ubreve
ENCODING 364
SWIDTH 891 0
DWIDTH 16 0
BBX 12 15 2 0
BITMAP
1880
0F00
0000
8010
8010
8010
8010
8010
8010
8010
8010
8010
8010
6060
1F80
ENDCHAR
STARTCHAR ubreve
ENCODING 365
SWIDTH 931 0
DWIDTH 17 0
BBX 13 15 2 0
BITMAP
08C0
0780
0000
8008
8008
8008
8008
8008
8008
8008
8008
8008
8038
40C8
3F08
ENDCHAR
STARTCHAR Uring
ENCODING 366
SWIDTH 891 0
DWIDTH 16 0
BBX 12 16 2 0
BITMAP
0E00
1100
0E00
0000
8010
8010
8010
8010
8010
8010
8010
8010
8010
8010
6060
1F80
ENDCHAR
STARTCHAR uring
ENCODING 367
SWIDTH 931 0
DWIDTH 17 0
BBX 13 16 2 0
BITMAP
0700
0880
0700
0000
8008
8008
8008
8008
8008
8008
8008
8008
8008
8038
40C8
3F08
ENDCHAR
STARTCHAR Uhungarumlaut
ENCODING 368
SWIDTH 891 0
DWIDTH 16 0
BBX 12 16 2 0
BITMAP
0240
0480
0900
0000
8010
8010
8010
8010
8010
8010
8010
8010
8010
8010
6060
1F80
ENDCHAR
STARTCHAR uhungarumlaut
ENCODING 369
SWIDTH 931 0
DWIDTH 17 0
BBX 13 16 2 0
BITMAP
0240
0480
0900
0000
8008
8008
8008
8008
8008
8008
8008
8008
8008
8038
40C8
3F08
ENDCHAR
STARTCHAR Uogonek
ENCODING 370
SWIDTH 891 0
DWIDTH 16 0
BBX 12 15 2 -3
BITMAP
8010
8010
8010
8010
8010
8010
8010
8010
8010
8010
6060
1F80
0800
0800
0700
ENDCHAR
STARTCHAR uogonek
ENCODING 371
SWIDTH 931 0
DWIDTH 17 0
BBX 14 15 2 -3
BITMAP
8008
8008
8008
8008
8008
8008
8008
8008
8008
8038
40C8
3F08
0010
0020
001C
ENDCHAR
STARTCHAR Wcircumflex
ENCODING 372
SWIDTH 1266 0
DWIDTH 23 0
BBX 21 16 1 0
BITMAP
006000
00D000
010C00
000000
802008
805008
405010
408810
208820
208820
310460
110440
120440
0A0280
0A0280
040100
ENDCHAR
STARTCHAR wcircumflex
ENCODING 373
SWIDTH 1266 0
DWIDTH 23 0
BBX 21 16 1 0
BITMAP
006000
00D000
010C00
000000
802008
805008
405010
408810
208820
208820
310460
110440
120440
0A0280
0A0280
040100
ENDCHAR
STARTCHAR Ycircumflex
ENCODING 374
SWIDTH 763 0
DWIDTH 14 0
BBX 11 16 1 0
BITMAP
0400
1B00
2080
0000
8020
4040
2080
3180
1100
0A00
0400
0400
0400
0400
0400
0400
ENDCHAR
STARTCHAR ycircumflex
ENCODING 375
SWIDTH 911 0
DWIDTH 16 0
BBX 12 16 2 0
BITMAP
0400
0B00
3080
0000
8010
8010
8010
8010
8010
4030
20D0
1F10
0010
0020
8040
7F80
ENDCHAR
STARTCHAR Ydieresis
ENCODING 376
SWIDTH 763 0
DWIDTH 14 0
BBX 11 14 1 0
BITMAP
1100
0000
8020
4040
2080
3180
1100
0A00
0400
0400
0400
0400
0400
0400
ENDCHAR
STARTCHAR Zacute
ENCODING 377
SWIDTH 728 0
DWIDTH 13 0
BBX 10 16 2 0
BITMAP
0100
0600
0800
0000
FFC0
0080
0100
0300
0200
0400
0800
1000
2000
4000
4000
FFC0
ENDCHAR
STARTCHAR zacute
ENCODING 378
SWIDTH 728 0
DWIDTH 13 0
BBX 10 16 2 0
BITMAP
0100
0600
0800
0000
FFC0
0080
0100
0300
0200
0400
0800
1000
2000
4000
4000
FFC0
ENDCHAR
STARTCHAR Zdotaccent
ENCODING 379
SWIDTH 728 0
DWIDTH 13 0
BBX 10 14 2 0
BITMAP
0800
0000
FFC0
0080
0100
0300
0200
0400
0800
1000
2000
4000
4000
FFC0
ENDCHAR
STARTCHAR zdotaccent
ENCODING 380
SWIDTH 728 0
DWIDTH 13 0
BBX 10 14 2 0
BITMAP
0800
0000
FFC0
0080
0100
0300
0200
0400
0800
1000
2000
4000
4000
FFC0
ENDCHAR
STARTCHAR Zcaron
ENCODING 381
SWIDTH 728 0
DWIDTH 13 0
BBX 10 16 2 0
BITMAP
2080
1B00
0400
0000
FFC0
0080
0100
0300
0200
0400
0800
1000
2000
4000
4000
FFC0
ENDCHAR
STARTCHAR zcaron
ENCODING 382
SWIDTH 728 0
DWIDTH 13 0
BBX 10 16 2 0
BITMAP
2080
1B00
0400
0000
FFC0
0080
0100
0300
0200
0400
0800
1000
2000
4000
4000
FFC0
ENDCHAR
STARTCHAR florin
ENCODING 402
SWIDTH 835 0
DWIDTH 15 0
BBX 14 13 1 -1
BITMAP
0078
0084
0080
0100
0FE0
0100
0100
0200
0200
0200
0400
8400
7800
ENDCHAR
STARTCHAR AEacute
ENCODING 508
SWIDTH 1172 0
DWIDTH 21 0
BBX 19 16 1 0
BITMAP
000200
000700
000800
000000
00FFE0
014000
024000
024000
044000
087FC0
084000
104000
3FC000
204000
404000
807FE0
ENDCHAR
STARTCHAR aeacute
ENCODING 509
SWIDTH 1551 0
DWIDTH 28 0
BBX 26 16 1 0
BITMAP
00010000
00030000
000C0000
00000000
1FC0FC00
60330300
000C0080
00080040
00080040
03FFFFC0
3C080000
40080000
80040000
800C0000
C0730080
3F80FF00
ENDCHAR
STARTCHAR Oslashacute
ENCODING 510
SWIDTH 983 0
DWIDTH 18 0
BBX 15 17 1 -1
BITMAP
0020
00C0
0100
0008
0FF0
3018
4024
4044
8082
8102
8102
8202
4404
4804
3018
1FE0
2000
ENDCHAR
STARTCHAR oslashacute
ENCODING 511
SWIDTH 983 0
DWIDTH 18 0
BBX 15 17 1 -1
BITMAP
0020
00C0
0100
0008
0FF0
3018
4024
4044
8082
8102
8102
8202
4404
4804
3018
1FE0
2000
ENDCHAR
STARTCHAR dotlessj
ENCODING 567
SWIDTH 590 0
DWIDTH 11 0
BBX 9 12 0 0
BITMAP
0080
0080
0080
0080
0080
0080
0080
0080
0080
0080
8100
7E00
ENDCHAR
STARTCHAR circumflex
ENCODING 710
SWIDTH 527 0
DWIDTH 10 0
BBX 7 3 1 10
BITMAP
10
6C
82
ENDCHAR
STARTCHAR caron
ENCODING 711
SWIDTH 527 0
DWIDTH 10 0
BBX 7 3 1 10
BITMAP
82
6C
10
ENDCHAR
STARTCHAR breve
ENCODING 728
SWIDTH 527 0
DWIDTH 10 0
BBX 6 2 2 10
BITMAP
84
78
ENDCHAR
STARTCHAR dotaccent
ENCODING 729
SWIDTH 527 0
DWIDTH 10 0
BBX 1 1 4 10
BITMAP
80
ENDCHAR
STARTCHAR ring
ENCODING 730
SWIDTH 527 0
DWIDTH 10 0
BBX 5 3 2 10
BITMAP
70
88
70
ENDCHAR
STARTCHAR ogonek
ENCODING 731
SWIDTH 527 0
DWIDTH 10 0
BBX 4 3 3 -3
BITMAP
60
80
70
ENDCHAR
STARTCHAR tilde
ENCODING 732
SWIDTH 527 0
DWIDTH 10 0
BBX 6 2 2 10
BITMAP
64
98
ENDCHAR
STARTCHAR hungarumlaut
ENCODING 733
SWIDTH 527 0
DWIDTH 10 0
BBX 6 3 2 10
BITMAP
24
48
90
ENDCHAR
STARTCHAR commaaccent
ENCODING 806
SWIDTH 527 0
DWIDTH 10 0
BBX 1 2 4 -3
BITMAP
80
80
ENDCHAR
STARTCHAR mu
ENCODING 956
SWIDTH 705 0
DWIDTH 13 0
BBX 10 12 1 -4
BITMAP
2040
2040
4080
4080
4080
4180
6280
BC80
8000
8000
8000
8000
ENDCHAR
STARTCHAR Wgrave
ENCODING 7808
SWIDTH 1266 0
DWIDTH 23 0
BBX 21 16 1 0
BITMAP
008000
00C000
003000
000000
802008
805008
405010
408810
208820
208820
310460
110440
120440
0A0280
0A0280
040100
ENDCHAR
STARTCHAR wgrave
ENCODING 7809
SWIDTH 1266 0
DWIDTH 23 0
BBX 21 16 1 0
BITMAP
008000
00C000
003000
000000
802008
805008
405010
408810
208820
208820
310460
110440
120440
0A0280
0A0280
040100
ENDCHAR
STARTCHAR Wacute
ENCODING 7810
SWIDTH 1266 0
DWIDTH 23 0
BBX 21 16 1 0
BITMAP
000800
001C00
002000
000000
802008
805008
405010
408810
208820
208820
310460
110440
120440
0A0280
0A0280
040100
ENDCHAR
STARTCHAR wacute
ENCODING 7811
SWIDTH 1266 0
DWIDTH 23 0
BBX 21 16 1 0
BITMAP
000800
001C00
002000
000000
802008
805008
405010
408810
208820
208820
310460
110440
120440
0A0280
0A0280
040100
ENDCHAR
STARTCHAR Wdieresis
ENCODING 7812
SWIDTH 1266 0
DWIDTH 23 0
BBX 21 14 1 0
BITMAP
008800
000000
802008
805008
405010
408810
208820
208820
310460
110440
120440
0A0280
0A0280
040100
ENDCHAR
STARTCHAR wdieresis
ENCODING 7813
SWIDTH 1266 0
DWIDTH 23 0
BBX 21 14 1 0
BITMAP
008800
000000
802008
805008
405010
408810
208820
208820
310460
110440
120440
0A0280
0A0280
040100
ENDCHAR
STARTCHAR Ygrave
ENCODING 7922
SWIDTH 763 0
DWIDTH 14 0
BBX 11 16 1 0
BITMAP
1000
0C00
0200
0000
8020
4040
2080
3180
1100
0A00
0400
0400
0400
0400
0400
0400
ENDCHAR
STARTCHAR ygrave
ENCODING 7923
SWIDTH 911 0
DWIDTH 16 0
BBX 12 16 2 0
BITMAP
1000
0C00
0200
0000
8010
8010
8010
8010
8010
4030
20D0
1F10
0010
0020
8040
7F80
ENDCHAR
STARTCHAR endash
ENCODING 8211
SWIDTH 419 0
DWIDTH 8 0
BBX 7 1 0 6
BITMAP
FE
ENDCHAR
STARTCHAR emdash
ENCODING 8212
SWIDTH 1000 0
DWIDTH 18 0
BBX 18 1 0 6
BITMAP
FFFFC0
ENDCHAR
STARTCHAR quoteleft
ENCODING 8216
SWIDTH 163 0
DWIDTH 3 0
BBX 2 3 1 9
BITMAP
40
40
80
ENDCHAR
STARTCHAR quoteright
ENCODING 8217
SWIDTH 163 0
DWIDTH 3 0
BBX 2 3 1 9
BITMAP
40
80
80
ENDCHAR
STARTCHAR quotesinglbase
ENCODING 8218
SWIDTH 163 0
DWIDTH 3 0
BBX 2 3 1 -1
BITMAP
40
80
80
ENDCHAR
STARTCHAR quotedblleft
ENCODING 8220
SWIDTH 303 0
DWIDTH 5 0
BBX 5 3 1 9
BITMAP
48
48
90
ENDCHAR
STARTCHAR quotedblright
ENCODING 8221
SWIDTH 303 0
DWIDTH 5 0
BBX 5 3 1 9
BITMAP
48
90
90
ENDCHAR
STARTCHAR quotedblbase
ENCODING 8222
SWIDTH 303 0
DWIDTH 5 0
BBX 5 3 1 -1
BITMAP
48
90
90
ENDCHAR
STARTCHAR dagger
ENCODING 8224
SWIDTH 500 0
DWIDTH 9 0
BBX 5 12 2 0
BITMAP
20
20
20
F8
20
20
20
20
20
20
20
20
ENDCHAR
STARTCHAR daggerdbl
ENCODING 8225
SWIDTH 500 0
DWIDTH 9 0
BBX 5 12 2 0
BITMAP
20
20
20
F8
20
20
20
F8
20
20
20
20
ENDCHAR
STARTCHAR bullet
ENCODING 8226
SWIDTH 352 0
DWIDTH 6 0
BBX 3 3 2 5
BITMAP
E0
E0
E0
ENDCHAR
STARTCHAR ellipsis
ENCODING 8230
SWIDTH 555 0
DWIDTH 10 0
BBX 7 2 1 0
BITMAP
92
92
ENDCHAR
STARTCHAR perthousand
ENCODING 8240
SWIDTH 1401 0
DWIDTH 25 0
BBX 23 12 1 0
BITMAP
380800
441000
822000
824000
448000
390000
013838
024444
048282
088282
104444
203838
ENDCHAR
STARTCHAR guilsinglleft
ENCODING 8249
SWIDTH 257 0
DWIDTH 5 0
BBX 4 7 0 3
BITMAP
10
20
40
80
40
20
10
ENDCHAR
STARTCHAR guilsinglright
ENCODING 8250
SWIDTH 257 0
DWIDTH 5 0
BBX 4 7 0 3
BITMAP
80
40
20
10
20
40
80
ENDCHAR
STARTCHAR fraction
ENCODING 8260
SWIDTH 200 0
DWIDTH 4 0
BBX 11 12 -4 0
BITMAP
0020
0040
0080
0100
0200
0400
0400
0800
1000
2000
4000
8000
ENDCHAR
STARTCHAR Euro
ENCODING 8364
SWIDTH 833 0
DWIDTH 15 0
BBX 12 12 1 0
BITMAP
07C0
0820
1010
2000
FF80
2000
2000
FF80
2000
1010
0820
07C0
ENDCHAR
STARTCHAR trademark
ENCODING 8482
SWIDTH 773 0
DWIDTH 14 0
BBX 12 5 0 7
BITMAP
FE30
2630
2550
2550
2490
ENDCHAR
STARTCHAR partialdiff
ENCODING 8706
SWIDTH 790 0
DWIDTH 14 0
BBX 12 12 1 0
BITMAP
0F80
1040
0020
0010
1F10
20D0
4030
8010
8020
8020
40C0
3F00
ENDCHAR
STARTCHAR minus
ENCODING 8722
SWIDTH 634 0
DWIDTH 11 0
BBX 8 1 2 6
BITMAP
FF
ENDCHAR
STARTCHAR uni2215
ENCODING 8725
SWIDTH 200 0
DWIDTH 4 0
BBX 11 12 -4 0
BITMAP
0020
0040
0080
0100
0200
0400
0400
0800
1000
2000
4000
8000
ENDCHAR
STARTCHAR approxequal
ENCODING 8776
SWIDTH 634 0
DWIDTH 11 0
BBX 9 5 1 4
BITMAP
7880
8700
0000
7880
8700
ENDCHAR
STARTCHAR notequal
ENCODING 8800
SWIDTH 634 0
DWIDTH 11 0
BBX 8 10 2 1
BITMAP
04
04
08
FF
08
10
FF
10
20
20
ENDCHAR
STARTCHAR lessequal
ENCODING 8804
SWIDTH 634 0
DWIDTH 11 0
BBX 9 10 1 1
BITMAP
0080
0300
1C00
6000
8000
7000
0E00
0180
0000
FF80
ENDCHAR
STARTCHAR greaterequal
ENCODING 8805
SWIDTH 634 0
DWIDTH 11 0
BBX 9 10 2 1
BITMAP
8000
6000
1C00
0300
0080
0700
3800
C000
0000
FF80
ENDCHAR
STARTCHAR fi
ENCODING 64257
SWIDTH 1104 0
DWIDTH 20 0
BBX 16 12 2 0
BITMAP
1FF1
6001
8001
8001
8001
FFF1
8001
8001
8001
8001
8001
8001
ENDCHAR
STARTCHAR fl
ENCODING 64258
SWIDTH 1527 0
DWIDTH 28 0
BBX 26 12 2 0
BITMAP
1FF10000
60010000
80010000
80010000
80010000
FFF10000
80010000
80010000
80010000
80010000
80018000
80007FC0
ENDCHAR
STARTCHAR .notdef
ENCODING -1
SWIDTH 1000 0
DWIDTH 18 0
BBX 1 1 0 0
BITMAP
00
ENDCHAR
ENDFONT
